<?xml version="1.0" encoding="UTF-8" standalone="no"?>
<!DOCTYPE svg PUBLIC "-//W3C//DTD SVG 1.1//EN" "http://www.w3.org/Graphics/SVG/1.1/DTD/svg11.dtd">
<svg width="100%" height="100%" viewBox="0 0 930 360" version="1.1" xmlns="http://www.w3.org/2000/svg" xmlns:xlink="http://www.w3.org/1999/xlink" xml:space="preserve" xmlns:serif="http://www.serif.com/" style="fill-rule:evenodd;clip-rule:evenodd;stroke-linejoin:round;stroke-miterlimit:2;">
    <g transform="matrix(1.06678,0,0,1.16776,-33.2975,-28.3226)">
        <path d="M902.994,48.917L902.994,307.875C902.994,321.487 890.897,332.538 875.997,332.538L58.21,332.538C43.31,332.538 31.213,321.487 31.213,307.875L31.213,48.917C31.213,35.305 43.31,24.254 58.21,24.254L875.997,24.254C890.897,24.254 902.994,35.305 902.994,48.917Z" style="fill:rgb(59,193,96);"/>
    </g>
    <g transform="matrix(1,0,0,1,-2.89462,-2.84217e-14)">
        <g transform="matrix(1,0,0,1,-11.4252,-12.3721)">
            <path d="M339.246,70.603L339.246,314.141C339.246,326.942 328.853,337.335 316.052,337.335L72.514,337.335C59.713,337.335 49.32,326.942 49.32,314.141L49.32,70.603C49.32,57.802 59.713,47.409 72.514,47.409L316.052,47.409C328.853,47.409 339.246,57.802 339.246,70.603Z" style="fill:white;"/>
        </g>
        <g transform="matrix(1,0,0,1,-71.0182,4.01584)">
            <path d="M128.858,50.966L128.858,111.32L189.211,111.32L189.211,50.966L128.858,50.966ZM206.455,50.966L206.455,59.588L215.077,59.588L215.077,50.966L206.455,50.966ZM232.321,50.966L232.321,59.588L223.699,59.588L223.699,68.21L206.455,68.21L206.455,59.588L197.833,59.588L197.833,76.832L206.455,76.832L206.455,85.454L232.321,85.454L232.321,76.832L240.943,76.832L240.943,94.076L249.565,94.076L249.565,85.454L258.187,85.454L258.187,102.698L266.809,102.698L266.809,119.942L240.943,119.942L240.943,102.698L232.321,102.698L232.321,94.076L223.699,94.076L223.699,102.698L232.321,102.698L232.321,119.942L240.943,119.942L240.943,137.185L249.565,137.185L249.565,145.807L240.943,145.807L240.943,154.429L266.809,154.429L266.809,163.051L292.675,163.051L292.675,171.673L301.297,171.673L301.297,197.539L318.541,197.539L318.541,223.405L301.297,223.405L301.297,214.783L284.053,214.783L284.053,206.161L275.431,206.161L275.431,197.539L284.053,197.539L284.053,188.917L292.675,188.917L292.675,180.295L275.431,180.295L275.431,171.673L266.809,171.673L266.809,163.051L240.943,163.051L240.943,154.429L232.321,154.429L232.321,163.051L215.077,163.051L215.077,171.673L232.321,171.673L232.321,188.917L215.077,188.917L215.077,171.673L206.455,171.673L206.455,163.051L197.833,163.051L197.833,154.429L180.59,154.429L180.59,145.807L171.968,145.807L171.968,128.563L163.346,128.563L163.346,119.942L154.724,119.942L154.724,128.563L163.346,128.563L163.346,145.807L171.968,145.807L171.968,163.051L197.833,163.051L197.833,171.673L206.455,171.673L206.455,188.917L215.077,188.917L215.077,206.161L206.455,206.161L206.455,188.917L197.833,188.917L197.833,171.673L180.59,171.673L180.59,180.295L189.211,180.295L189.211,188.917L180.59,188.917L180.59,197.539L189.211,197.539L189.211,206.161L180.59,206.161L180.59,197.539L171.968,197.539L171.968,188.917L163.346,188.917L163.346,180.295L154.724,180.295L154.724,188.917L163.346,188.917L163.346,197.539L171.968,197.539L171.968,214.783L163.346,214.783L163.346,206.161L146.102,206.161L146.102,197.539L154.724,197.539L154.724,188.917L137.48,188.917L137.48,180.295L146.102,180.295L146.102,171.673L128.858,171.673L128.858,197.539L137.48,197.539L137.48,206.161L146.102,206.161L146.102,214.783L163.346,214.783L163.346,223.405L171.968,223.405L171.968,232.027L189.211,232.027L189.211,223.405L180.59,223.405L180.59,214.783L189.211,214.783L189.211,223.405L215.077,223.405L215.077,240.649L240.943,240.649L240.943,249.271L223.699,249.271L223.699,257.893L240.943,257.893L240.943,266.515L223.699,266.515L223.699,257.893L215.077,257.893L215.077,249.271L206.455,249.271L206.455,232.027L197.833,232.027L197.833,249.271L206.455,249.271L206.455,266.515L223.699,266.515L223.699,283.758L215.077,283.758L215.077,292.38L232.321,292.38L232.321,283.758L240.943,283.758L240.943,292.38L249.565,292.38L249.565,301.002L266.809,301.002L266.809,292.38L275.431,292.38L275.431,301.002L284.053,301.002L284.053,292.38L292.675,292.38L292.675,301.002L318.541,301.002L318.541,275.137L309.919,275.137L309.919,266.515L318.541,266.515L318.541,275.137L335.785,275.137L335.785,283.758L361.65,283.758L361.65,301.002L370.272,301.002L370.272,283.758L361.65,283.758L361.65,275.137L353.028,275.137L353.028,257.893L344.406,257.893L344.406,214.783L353.028,214.783L353.028,206.161L335.785,206.161L335.785,188.917L344.406,188.917L344.406,197.539L353.028,197.539L353.028,180.295L344.406,180.295L344.406,171.673L327.163,171.673L327.163,180.295L318.541,180.295L318.541,163.051L309.919,163.051L309.919,154.429L301.297,154.429L301.297,137.185L292.675,137.185L292.675,128.563L275.431,128.563L275.431,119.942L292.675,119.942L292.675,128.563L301.297,128.563L301.297,119.942L309.919,119.942L309.919,102.698L301.297,102.698L301.297,94.076L292.675,94.076L292.675,85.454L309.919,85.454L309.919,76.832L301.297,76.832L301.297,68.21L292.675,68.21L292.675,59.588L309.919,59.588L309.919,50.966L275.431,50.966L275.431,59.588L284.053,59.588L284.053,68.21L292.675,68.21L292.675,76.832L284.053,76.832L284.053,68.21L275.431,68.21L275.431,76.832L284.053,76.832L284.053,85.454L258.187,85.454L258.187,76.832L240.943,76.832L240.943,50.966L232.321,50.966ZM249.565,50.966L249.565,68.21L258.187,68.21L258.187,76.832L266.809,76.832L266.809,50.966L249.565,50.966ZM318.541,50.966L318.541,111.32L378.894,111.32L378.894,50.966L318.541,50.966ZM180.59,59.588L180.59,102.698L137.48,102.698L137.48,59.588L180.59,59.588ZM370.272,59.588L370.272,102.698L327.163,102.698L327.163,59.588L370.272,59.588ZM146.102,68.21L146.102,94.076L171.968,94.076L171.968,68.21L146.102,68.21ZM335.785,68.21L335.785,94.076L361.65,94.076L361.65,68.21L335.785,68.21ZM197.833,85.454L197.833,119.942L215.077,119.942L215.077,137.185L206.455,137.185L206.455,128.563L197.833,128.563L197.833,119.942L180.59,119.942L180.59,128.563L189.211,128.563L189.211,137.185L180.59,137.185L180.59,145.807L197.833,145.807L197.833,154.429L206.455,154.429L206.455,145.807L223.699,145.807L223.699,137.185L232.321,137.185L232.321,128.563L223.699,128.563L223.699,119.942L215.077,119.942L215.077,111.32L206.455,111.32L206.455,102.698L215.077,102.698L215.077,111.32L223.699,111.32L223.699,102.698L215.077,102.698L215.077,94.076L206.455,94.076L206.455,85.454L197.833,85.454ZM284.053,94.076L284.053,111.32L275.431,111.32L275.431,94.076L284.053,94.076ZM249.565,102.698L249.565,111.32L258.187,111.32L258.187,102.698L249.565,102.698ZM292.675,111.32L292.675,102.698L301.297,102.698L301.297,111.32L292.675,111.32ZM128.858,119.942L128.858,128.563L137.48,128.563L137.48,137.185L146.102,137.185L146.102,119.942L128.858,119.942ZM318.541,119.942L318.541,128.563L309.919,128.563L309.919,154.429L318.541,154.429L318.541,163.051L327.163,163.051L327.163,145.807L335.785,145.807L335.785,154.429L344.406,154.429L344.406,163.051L353.028,163.051L353.028,180.295L361.65,180.295L361.65,197.539L370.272,197.539L370.272,206.161L361.65,206.161L361.65,223.405L378.894,223.405L378.894,197.539L370.272,197.539L370.272,180.295L378.894,180.295L378.894,171.673L361.65,171.673L361.65,163.051L353.028,163.051L353.028,154.429L361.65,154.429L361.65,163.051L378.894,163.051L378.894,154.429L370.272,154.429L370.272,137.185L353.028,137.185L353.028,128.563L344.406,128.563L344.406,119.942L318.541,119.942ZM353.028,119.942L353.028,128.563L370.272,128.563L370.272,137.185L378.894,137.185L378.894,128.563L370.272,128.563L370.272,119.942L353.028,119.942ZM128.858,137.185L128.858,163.051L137.48,163.051L137.48,137.185L128.858,137.185ZM266.809,137.185L266.809,145.807L258.187,145.807L258.187,137.185L266.809,137.185ZM284.053,137.185L284.053,145.807L292.675,145.807L292.675,154.429L275.431,154.429L275.431,137.185L284.053,137.185ZM327.163,137.185L327.163,128.563L344.406,128.563L344.406,137.185L327.163,137.185ZM146.102,145.807L146.102,154.429L163.346,154.429L163.346,145.807L146.102,145.807ZM163.346,163.051L163.346,180.295L171.968,180.295L171.968,163.051L163.346,163.051ZM249.565,188.917L249.565,171.673L266.809,171.673L266.809,180.295L275.431,180.295L275.431,188.917L266.809,188.917L266.809,214.783L275.431,214.783L275.431,223.405L301.297,223.405L301.297,232.027L284.053,232.027L284.053,249.271L292.675,249.271L292.675,240.649L301.297,240.649L301.297,275.137L284.053,275.137L284.053,266.515L275.431,266.515L275.431,275.137L284.053,275.137L284.053,283.758L275.431,283.758L275.431,275.137L266.809,275.137L266.809,283.758L240.943,283.758L240.943,275.137L258.187,275.137L258.187,257.893L249.565,257.893L249.565,232.027L258.187,232.027L258.187,223.405L266.809,223.405L266.809,240.649L275.431,240.649L275.431,223.405L266.809,223.405L266.809,214.783L249.565,214.783L249.565,197.539L240.943,197.539L240.943,188.917L249.565,188.917ZM327.163,188.917L327.163,197.539L318.541,197.539L318.541,188.917L327.163,188.917ZM128.858,206.161L128.858,214.783L137.48,214.783L137.48,206.161L128.858,206.161ZM232.321,206.161L232.321,214.783L249.565,214.783L249.565,223.405L240.943,223.405L240.943,232.027L232.321,232.027L232.321,223.405L223.699,223.405L223.699,197.539L240.943,197.539L240.943,206.161L232.321,206.161ZM197.833,214.783L197.833,206.161L206.455,206.161L206.455,214.783L197.833,214.783ZM128.858,223.405L128.858,232.027L137.48,232.027L137.48,223.405L128.858,223.405ZM154.724,223.405L154.724,232.027L163.346,232.027L163.346,223.405L154.724,223.405ZM353.028,223.405L353.028,240.649L361.65,240.649L361.65,249.271L353.028,249.271L353.028,257.893L361.65,257.893L361.65,275.137L370.272,275.137L370.272,283.758L378.894,283.758L378.894,275.137L370.272,275.137L370.272,257.893L378.894,257.893L378.894,249.271L370.272,249.271L370.272,240.649L378.894,240.649L378.894,232.027L361.65,232.027L361.65,223.405L353.028,223.405ZM335.785,232.027L335.785,257.893L309.919,257.893L309.919,232.027L335.785,232.027ZM128.858,240.649L128.858,301.002L189.211,301.002L189.211,240.649L128.858,240.649ZM318.541,240.649L318.541,249.271L327.163,249.271L327.163,240.649L318.541,240.649ZM180.59,249.271L180.59,292.38L137.48,292.38L137.48,249.271L180.59,249.271ZM266.809,249.271L266.809,257.893L275.431,257.893L275.431,249.271L266.809,249.271ZM146.102,257.893L146.102,283.758L171.968,283.758L171.968,257.893L146.102,257.893ZM197.833,266.515L197.833,275.137L206.455,275.137L206.455,266.515L197.833,266.515ZM197.833,283.758L197.833,301.002L215.077,301.002L215.077,292.38L206.455,292.38L206.455,283.758L197.833,283.758ZM327.163,292.38L327.163,301.002L353.028,301.002L353.028,292.38L327.163,292.38Z" style="fill:rgb(58,58,58);"/>
        </g>
    </g>
    <g transform="matrix(1,0,0,1,-2.69531,7.56626)">
        <g transform="matrix(1,0,0,1,9.06774,16.8671)">
            <g transform="matrix(0.990222,0,0,1.05973,-7.97938,-43.337)">
                <path d="M852.463,227.255L852.463,274.414C852.463,287.428 841.156,297.993 827.228,297.993L418.872,297.993C404.945,297.993 393.638,287.428 393.638,274.414L393.638,227.255C393.638,214.241 404.945,203.676 418.872,203.676L827.228,203.676C841.156,203.676 852.463,214.241 852.463,227.255Z" style="fill:white;"/>
            </g>
            <g transform="matrix(1,0,0,1,58.8908,-3.04)">
                <g transform="matrix(1,0,0,1,-124.268,35.9564)">
                    <g transform="matrix(64,0,0,64,589.643,213.884)">
                        <path d="M0.067,-0.176C0.066,-0.181 0.065,-0.187 0.062,-0.196C0.058,-0.204 0.056,-0.213 0.053,-0.222C0.049,-0.231 0.047,-0.238 0.044,-0.244C0.055,-0.247 0.067,-0.254 0.08,-0.265C0.092,-0.276 0.106,-0.291 0.122,-0.31C0.131,-0.319 0.143,-0.334 0.16,-0.355C0.177,-0.376 0.195,-0.4 0.216,-0.429C0.237,-0.457 0.258,-0.488 0.28,-0.522C0.301,-0.555 0.321,-0.589 0.338,-0.623L0.4,-0.586C0.359,-0.517 0.314,-0.45 0.265,-0.385C0.216,-0.32 0.167,-0.264 0.118,-0.215L0.118,-0.213C0.118,-0.213 0.116,-0.212 0.111,-0.21C0.106,-0.207 0.099,-0.204 0.093,-0.2C0.086,-0.196 0.08,-0.192 0.075,-0.188C0.07,-0.184 0.067,-0.18 0.067,-0.176ZM0.067,-0.176L0.063,-0.237L0.101,-0.264L0.399,-0.319C0.398,-0.309 0.398,-0.298 0.398,-0.285C0.398,-0.272 0.398,-0.262 0.399,-0.254C0.331,-0.24 0.276,-0.229 0.235,-0.22C0.193,-0.211 0.161,-0.204 0.139,-0.199C0.116,-0.194 0.1,-0.189 0.091,-0.186C0.081,-0.183 0.073,-0.179 0.067,-0.176ZM0.061,-0.416C0.06,-0.421 0.058,-0.428 0.055,-0.438C0.051,-0.447 0.048,-0.456 0.045,-0.465C0.042,-0.474 0.039,-0.482 0.036,-0.489C0.045,-0.491 0.054,-0.498 0.064,-0.509C0.073,-0.52 0.083,-0.534 0.094,-0.551C0.1,-0.559 0.109,-0.573 0.12,-0.592C0.131,-0.611 0.144,-0.634 0.158,-0.661C0.171,-0.687 0.185,-0.715 0.198,-0.746C0.211,-0.776 0.223,-0.806 0.234,-0.837L0.306,-0.804C0.288,-0.763 0.268,-0.721 0.247,-0.68C0.225,-0.638 0.202,-0.598 0.179,-0.561C0.155,-0.523 0.131,-0.489 0.107,-0.458L0.107,-0.456C0.107,-0.456 0.105,-0.455 0.1,-0.452C0.095,-0.449 0.09,-0.446 0.084,-0.442C0.077,-0.438 0.072,-0.434 0.068,-0.429C0.063,-0.424 0.061,-0.42 0.061,-0.416ZM0.061,-0.416L0.059,-0.471L0.095,-0.494L0.285,-0.514C0.284,-0.505 0.283,-0.494 0.282,-0.483C0.281,-0.471 0.28,-0.461 0.28,-0.454C0.237,-0.448 0.201,-0.443 0.174,-0.44C0.147,-0.436 0.126,-0.433 0.111,-0.43C0.095,-0.427 0.085,-0.425 0.078,-0.423C0.071,-0.421 0.065,-0.419 0.061,-0.416ZM0.04,-0.053C0.07,-0.059 0.104,-0.066 0.143,-0.075C0.181,-0.083 0.222,-0.092 0.265,-0.102C0.308,-0.112 0.352,-0.122 0.395,-0.132L0.403,-0.066C0.341,-0.051 0.28,-0.036 0.219,-0.021C0.158,-0.006 0.103,0.008 0.055,0.021L0.04,-0.053ZM0.513,-0.697L0.513,-0.398L0.815,-0.398L0.815,-0.697L0.513,-0.697ZM0.439,-0.769L0.892,-0.769L0.892,-0.326L0.439,-0.326L0.439,-0.769ZM0.737,-0.205L0.806,-0.23C0.825,-0.201 0.843,-0.171 0.862,-0.138C0.88,-0.105 0.896,-0.073 0.911,-0.042C0.925,-0.011 0.936,0.017 0.943,0.041L0.869,0.071C0.862,0.047 0.852,0.019 0.838,-0.013C0.824,-0.045 0.808,-0.078 0.791,-0.112C0.774,-0.145 0.756,-0.176 0.737,-0.205ZM0.51,-0.228L0.589,-0.211C0.572,-0.154 0.55,-0.1 0.522,-0.05C0.493,0.001 0.462,0.044 0.429,0.079C0.424,0.075 0.418,0.07 0.41,0.065C0.402,0.06 0.394,0.054 0.385,0.049C0.376,0.043 0.369,0.039 0.362,0.036C0.396,0.004 0.426,-0.035 0.451,-0.082C0.476,-0.129 0.496,-0.177 0.51,-0.228Z" style="fill:rgb(58,58,58);fill-rule:nonzero;"/>
                    </g>
                    <g transform="matrix(64,0,0,64,653.643,213.884)">
                        <path d="M0.28,-0.156L0.355,-0.156L0.355,-0.027C0.355,-0.014 0.359,-0.006 0.368,-0.003C0.376,0.001 0.395,0.003 0.425,0.003L0.635,0.003C0.651,0.003 0.663,0.001 0.671,-0.004C0.678,-0.008 0.684,-0.017 0.687,-0.031C0.69,-0.044 0.693,-0.065 0.695,-0.093C0.703,-0.088 0.713,-0.083 0.727,-0.078C0.74,-0.073 0.751,-0.07 0.761,-0.068C0.758,-0.032 0.752,-0.004 0.745,0.015C0.737,0.034 0.725,0.048 0.709,0.056C0.693,0.063 0.67,0.067 0.641,0.067L0.422,0.067C0.385,0.067 0.356,0.064 0.335,0.059C0.314,0.054 0.3,0.044 0.292,0.031C0.284,0.018 0.28,-0.001 0.28,-0.026L0.28,-0.156ZM0.429,-0.156L0.474,-0.195C0.499,-0.181 0.525,-0.164 0.551,-0.145C0.576,-0.125 0.596,-0.107 0.609,-0.091L0.561,-0.048C0.548,-0.064 0.529,-0.082 0.504,-0.103C0.479,-0.123 0.454,-0.141 0.429,-0.156ZM0.774,-0.137L0.842,-0.157C0.857,-0.138 0.871,-0.118 0.885,-0.096C0.899,-0.074 0.912,-0.052 0.924,-0.031C0.935,-0.009 0.944,0.01 0.949,0.027L0.877,0.051C0.871,0.034 0.863,0.014 0.852,-0.008C0.841,-0.029 0.829,-0.051 0.816,-0.074C0.802,-0.097 0.788,-0.118 0.774,-0.137ZM0.155,-0.148L0.219,-0.122C0.209,-0.094 0.197,-0.064 0.183,-0.031C0.168,0.003 0.152,0.031 0.134,0.054L0.069,0.017C0.087,-0.004 0.104,-0.031 0.119,-0.062C0.134,-0.092 0.146,-0.121 0.155,-0.148ZM0.145,-0.473L0.84,-0.473L0.84,-0.199L0.139,-0.199L0.139,-0.251L0.767,-0.251L0.767,-0.421L0.145,-0.421L0.145,-0.473ZM0.177,-0.363L0.792,-0.363L0.792,-0.313L0.177,-0.313L0.177,-0.363ZM0.079,-0.788L0.45,-0.788L0.45,-0.738L0.079,-0.738L0.079,-0.788ZM0.1,-0.689L0.437,-0.689L0.437,-0.64L0.1,-0.64L0.1,-0.689ZM0.239,-0.84L0.308,-0.84L0.308,-0.488L0.239,-0.488L0.239,-0.84ZM0.513,-0.788L0.91,-0.788L0.91,-0.738L0.513,-0.738L0.513,-0.788ZM0.502,-0.589L0.928,-0.589L0.928,-0.54L0.502,-0.54L0.502,-0.589ZM0.535,-0.689L0.894,-0.689L0.894,-0.64L0.535,-0.64L0.535,-0.689ZM0.673,-0.84L0.743,-0.84L0.743,-0.488L0.673,-0.488L0.673,-0.84ZM0.067,-0.591L0.464,-0.591L0.464,-0.542L0.067,-0.542L0.067,-0.591Z" style="fill:rgb(58,58,58);fill-rule:nonzero;"/>
                    </g>
                    <g transform="matrix(64,0,0,64,717.643,213.884)">
                        <path d="M0.582,-0.687L0.903,-0.687L0.903,-0.618L0.582,-0.618L0.582,-0.687ZM0.591,-0.841L0.664,-0.83C0.655,-0.774 0.645,-0.72 0.632,-0.667C0.619,-0.614 0.603,-0.566 0.586,-0.521C0.568,-0.475 0.547,-0.436 0.523,-0.402C0.519,-0.406 0.513,-0.411 0.506,-0.416C0.498,-0.421 0.49,-0.427 0.482,-0.432C0.473,-0.436 0.466,-0.441 0.461,-0.444C0.484,-0.475 0.504,-0.512 0.521,-0.554C0.538,-0.596 0.552,-0.641 0.563,-0.69C0.574,-0.739 0.584,-0.789 0.591,-0.841ZM0.886,-0.686L0.896,-0.686L0.909,-0.689L0.959,-0.675C0.952,-0.644 0.945,-0.612 0.938,-0.58C0.931,-0.547 0.923,-0.515 0.915,-0.485C0.907,-0.455 0.899,-0.429 0.891,-0.406L0.831,-0.424C0.837,-0.445 0.843,-0.469 0.85,-0.498C0.857,-0.526 0.863,-0.555 0.87,-0.586C0.876,-0.617 0.881,-0.646 0.886,-0.673L0.886,-0.686ZM0.664,-0.523L0.737,-0.523L0.737,-0.476C0.737,-0.437 0.735,-0.394 0.73,-0.348C0.724,-0.301 0.714,-0.253 0.699,-0.204C0.683,-0.155 0.659,-0.106 0.626,-0.057C0.593,-0.008 0.548,0.038 0.492,0.081C0.488,0.075 0.483,0.069 0.476,0.063C0.469,0.057 0.463,0.051 0.456,0.045C0.448,0.039 0.442,0.034 0.435,0.03C0.489,-0.01 0.531,-0.052 0.562,-0.097C0.593,-0.141 0.615,-0.186 0.63,-0.231C0.645,-0.276 0.654,-0.319 0.658,-0.361C0.662,-0.403 0.664,-0.442 0.664,-0.477L0.664,-0.523ZM0.732,-0.393C0.743,-0.332 0.759,-0.275 0.78,-0.221C0.8,-0.166 0.825,-0.119 0.856,-0.078C0.887,-0.037 0.923,-0.005 0.966,0.018C0.961,0.023 0.955,0.029 0.948,0.036C0.941,0.043 0.935,0.051 0.93,0.059C0.924,0.066 0.919,0.073 0.915,0.079C0.87,0.052 0.832,0.016 0.8,-0.03C0.768,-0.076 0.741,-0.129 0.721,-0.189C0.7,-0.248 0.683,-0.313 0.67,-0.382L0.732,-0.393ZM0.05,-0.722L0.478,-0.722L0.478,-0.65L0.05,-0.65L0.05,-0.722ZM0.278,-0.563L0.346,-0.563L0.346,0.076L0.278,0.076L0.278,-0.563ZM0.039,-0.169C0.076,-0.174 0.118,-0.179 0.166,-0.186C0.213,-0.192 0.264,-0.199 0.318,-0.207C0.372,-0.215 0.426,-0.223 0.479,-0.231L0.482,-0.161C0.407,-0.149 0.331,-0.137 0.256,-0.124C0.181,-0.111 0.114,-0.101 0.056,-0.092L0.039,-0.169ZM0.094,-0.332C0.093,-0.337 0.091,-0.343 0.088,-0.352C0.085,-0.36 0.083,-0.368 0.08,-0.377C0.077,-0.385 0.073,-0.392 0.07,-0.398C0.079,-0.401 0.088,-0.409 0.097,-0.424C0.106,-0.438 0.115,-0.456 0.124,-0.479C0.129,-0.49 0.137,-0.507 0.147,-0.532C0.157,-0.556 0.168,-0.585 0.179,-0.618C0.19,-0.651 0.202,-0.687 0.213,-0.725C0.224,-0.763 0.234,-0.801 0.242,-0.838L0.316,-0.822C0.302,-0.769 0.286,-0.715 0.268,-0.662C0.249,-0.608 0.23,-0.557 0.21,-0.508C0.189,-0.459 0.169,-0.414 0.148,-0.374L0.148,-0.373C0.148,-0.373 0.145,-0.372 0.14,-0.369C0.135,-0.366 0.128,-0.363 0.121,-0.358C0.114,-0.353 0.107,-0.349 0.102,-0.344C0.097,-0.339 0.094,-0.335 0.094,-0.332ZM0.094,-0.332L0.094,-0.394L0.135,-0.414L0.472,-0.414L0.472,-0.346L0.172,-0.346C0.153,-0.346 0.136,-0.345 0.122,-0.342C0.107,-0.339 0.098,-0.336 0.094,-0.332Z" style="fill:rgb(58,58,58);fill-rule:nonzero;"/>
                    </g>
                    <g transform="matrix(64,0,0,64,781.643,213.884)">
                        <path d="M0.604,-0.828L0.679,-0.828L0.679,0.08L0.604,0.08L0.604,-0.828ZM0.432,-0.79L0.504,-0.775C0.495,-0.729 0.484,-0.684 0.471,-0.639C0.458,-0.594 0.443,-0.552 0.427,-0.513C0.41,-0.474 0.392,-0.44 0.373,-0.409C0.368,-0.413 0.362,-0.417 0.355,-0.422C0.347,-0.427 0.339,-0.431 0.331,-0.436C0.322,-0.441 0.315,-0.444 0.309,-0.447C0.328,-0.474 0.346,-0.506 0.362,-0.544C0.377,-0.58 0.391,-0.62 0.403,-0.662C0.415,-0.704 0.425,-0.747 0.432,-0.79ZM0.441,-0.635L0.909,-0.635L0.909,-0.562L0.423,-0.562L0.441,-0.635ZM0.317,-0.341L0.953,-0.341L0.953,-0.267L0.317,-0.267L0.317,-0.341ZM0.268,-0.836L0.339,-0.815C0.318,-0.758 0.293,-0.703 0.266,-0.648C0.238,-0.593 0.208,-0.541 0.176,-0.493C0.143,-0.444 0.11,-0.401 0.075,-0.363C0.072,-0.369 0.069,-0.377 0.064,-0.386C0.058,-0.395 0.053,-0.405 0.048,-0.415C0.042,-0.424 0.037,-0.432 0.032,-0.437C0.063,-0.47 0.093,-0.507 0.123,-0.55C0.152,-0.593 0.179,-0.639 0.204,-0.688C0.229,-0.737 0.25,-0.786 0.268,-0.836ZM0.167,-0.579L0.238,-0.65L0.239,-0.649L0.239,0.078L0.167,0.078L0.167,-0.579Z" style="fill:rgb(58,58,58);fill-rule:nonzero;"/>
                    </g>
                </g>
                <g id="material-symbols--search-rounded.svg" transform="matrix(2.91098,0,0,2.91098,416.741,225.52)">
                    <g transform="matrix(1,0,0,1,-12,-12)">
                        <path d="M9.5,16C7.683,16 6.146,15.371 4.888,14.112C3.63,12.853 3.001,11.316 3,9.5C2.999,7.684 3.629,6.147 4.888,4.888C6.147,3.629 7.685,3 9.5,3C11.315,3 12.853,3.629 14.113,4.888C15.373,6.147 16.002,7.684 16,9.5C16,10.233 15.883,10.925 15.65,11.575C15.417,12.225 15.1,12.8 14.7,13.3L20.3,18.9C20.483,19.083 20.575,19.317 20.575,19.6C20.575,19.883 20.483,20.117 20.3,20.3C20.117,20.483 19.883,20.575 19.6,20.575C19.317,20.575 19.083,20.483 18.9,20.3L13.3,14.7C12.8,15.1 12.225,15.417 11.575,15.65C10.925,15.883 10.233,16 9.5,16M9.5,14C10.75,14 11.813,13.563 12.688,12.688C13.563,11.813 14.001,10.751 14,9.5C13.999,8.249 13.562,7.187 12.688,6.313C11.814,5.439 10.751,5.001 9.5,5C8.249,4.999 7.186,5.436 6.313,6.313C5.44,7.19 5.002,8.252 5,9.5C4.998,10.748 5.436,11.811 6.313,12.688C7.19,13.565 8.253,14.003 9.5,14" style="fill:rgb(51,51,51);fill-rule:nonzero;"/>
                    </g>
                </g>
            </g>
        </g>
        <g transform="matrix(1,0,0,1,-9.41447,0.902344)">
            <g transform="matrix(1,0,0,1,31.2998,40.5531)">
                <g transform="matrix(72,0,0,72,475.481,88.1106)">
                    <path d="M0.523,-0.016L0.513,-0.081L0.535,-0.11L0.661,-0.189C0.663,-0.18 0.666,-0.171 0.67,-0.16C0.673,-0.149 0.677,-0.141 0.68,-0.134C0.64,-0.107 0.61,-0.087 0.589,-0.072C0.568,-0.057 0.553,-0.045 0.544,-0.038C0.535,-0.03 0.528,-0.023 0.523,-0.016ZM0.523,-0.016C0.522,-0.021 0.519,-0.028 0.516,-0.037C0.513,-0.045 0.509,-0.053 0.506,-0.061C0.502,-0.068 0.498,-0.075 0.495,-0.08C0.501,-0.083 0.507,-0.09 0.514,-0.099C0.52,-0.108 0.523,-0.123 0.523,-0.143L0.523,-0.318L0.585,-0.318L0.585,-0.078C0.585,-0.078 0.582,-0.076 0.576,-0.072C0.569,-0.068 0.562,-0.063 0.554,-0.056C0.546,-0.049 0.539,-0.043 0.533,-0.036C0.526,-0.029 0.523,-0.022 0.523,-0.016ZM0.716,-0.634L0.961,-0.634L0.961,-0.568L0.69,-0.568L0.716,-0.634ZM0.713,-0.839L0.783,-0.829C0.776,-0.767 0.766,-0.707 0.755,-0.648C0.744,-0.589 0.73,-0.535 0.714,-0.484C0.697,-0.433 0.677,-0.388 0.654,-0.349C0.651,-0.354 0.647,-0.36 0.641,-0.367C0.634,-0.374 0.628,-0.381 0.622,-0.388C0.615,-0.395 0.609,-0.4 0.604,-0.404C0.625,-0.439 0.642,-0.48 0.656,-0.527C0.67,-0.573 0.682,-0.623 0.691,-0.676C0.7,-0.729 0.708,-0.784 0.713,-0.839ZM0.723,-0.556C0.731,-0.493 0.741,-0.433 0.754,-0.374C0.767,-0.315 0.783,-0.26 0.803,-0.209C0.822,-0.158 0.846,-0.113 0.873,-0.075C0.9,-0.036 0.932,-0.006 0.969,0.017C0.964,0.022 0.958,0.027 0.952,0.034C0.945,0.041 0.939,0.048 0.934,0.056C0.928,0.063 0.923,0.07 0.919,0.076C0.881,0.049 0.848,0.015 0.821,-0.028C0.794,-0.07 0.77,-0.118 0.751,-0.173C0.731,-0.227 0.715,-0.286 0.702,-0.35C0.689,-0.413 0.678,-0.479 0.669,-0.548L0.723,-0.556ZM0.862,-0.6L0.928,-0.595C0.917,-0.488 0.899,-0.392 0.876,-0.307C0.852,-0.222 0.819,-0.147 0.777,-0.083C0.735,-0.019 0.68,0.036 0.613,0.082C0.611,0.077 0.607,0.071 0.602,0.065C0.597,0.057 0.591,0.05 0.586,0.044C0.58,0.037 0.575,0.031 0.57,0.027C0.634,-0.013 0.686,-0.063 0.725,-0.123C0.764,-0.182 0.795,-0.252 0.816,-0.332C0.837,-0.411 0.853,-0.501 0.862,-0.6ZM0.432,-0.84L0.49,-0.84L0.49,-0.559L0.432,-0.559L0.432,-0.84ZM0.303,-0.759L0.355,-0.759L0.355,-0.581L0.561,-0.581L0.561,-0.759L0.616,-0.759L0.616,-0.519L0.303,-0.519L0.303,-0.759ZM0.284,-0.446L0.617,-0.446L0.617,-0.381L0.284,-0.381L0.284,-0.446ZM0.349,-0.318L0.564,-0.318L0.564,-0.258L0.349,-0.258L0.349,-0.318ZM0.327,-0.318L0.392,-0.318L0.392,-0.2C0.392,-0.172 0.39,-0.142 0.385,-0.109C0.38,-0.076 0.372,-0.044 0.359,-0.012C0.345,0.02 0.326,0.049 0.301,0.076C0.298,0.072 0.294,0.067 0.288,0.06C0.282,0.053 0.276,0.047 0.27,0.041C0.263,0.034 0.258,0.03 0.253,0.027C0.275,0.004 0.291,-0.021 0.302,-0.048C0.312,-0.074 0.319,-0.1 0.322,-0.127C0.325,-0.154 0.327,-0.179 0.327,-0.202L0.327,-0.318ZM0.198,-0.84L0.267,-0.815C0.242,-0.775 0.212,-0.734 0.176,-0.693C0.14,-0.651 0.104,-0.615 0.068,-0.584C0.065,-0.589 0.062,-0.596 0.057,-0.603C0.051,-0.61 0.047,-0.617 0.042,-0.624C0.037,-0.631 0.032,-0.637 0.028,-0.641C0.049,-0.658 0.071,-0.678 0.093,-0.701C0.114,-0.724 0.134,-0.747 0.153,-0.772C0.172,-0.796 0.187,-0.819 0.198,-0.84ZM0.219,-0.64L0.286,-0.617C0.267,-0.578 0.245,-0.538 0.22,-0.499C0.195,-0.459 0.169,-0.421 0.142,-0.386C0.115,-0.35 0.087,-0.318 0.06,-0.291C0.058,-0.296 0.054,-0.303 0.049,-0.311C0.044,-0.319 0.038,-0.327 0.033,-0.336C0.027,-0.345 0.022,-0.351 0.017,-0.356C0.054,-0.392 0.091,-0.435 0.128,-0.486C0.164,-0.536 0.194,-0.587 0.219,-0.64ZM0.147,-0.457L0.215,-0.526L0.216,-0.525L0.216,0.078L0.147,0.078L0.147,-0.457Z" style="fill:white;fill-rule:nonzero;"/>
                </g>
                <g transform="matrix(72,0,0,72,547.481,88.1106)">
                    <path d="M0.382,-0.531L0.869,-0.531L0.869,-0.469L0.382,-0.469L0.382,-0.531ZM0.382,-0.389L0.869,-0.389L0.869,-0.328L0.382,-0.328L0.382,-0.389ZM0.413,-0.022L0.836,-0.022L0.836,0.04L0.413,0.04L0.413,-0.022ZM0.31,-0.675L0.947,-0.675L0.947,-0.611L0.31,-0.611L0.31,-0.675ZM0.369,-0.243L0.879,-0.243L0.879,0.077L0.811,0.077L0.811,-0.181L0.434,-0.181L0.434,0.08L0.369,0.08L0.369,-0.243ZM0.541,-0.815L0.606,-0.84C0.621,-0.82 0.635,-0.798 0.649,-0.774C0.662,-0.749 0.672,-0.728 0.679,-0.71L0.612,-0.68C0.605,-0.698 0.595,-0.72 0.582,-0.745C0.568,-0.77 0.554,-0.794 0.541,-0.815ZM0.256,-0.836L0.323,-0.816C0.304,-0.76 0.281,-0.705 0.255,-0.65C0.229,-0.595 0.201,-0.544 0.17,-0.496C0.138,-0.447 0.107,-0.404 0.074,-0.367C0.071,-0.372 0.068,-0.38 0.063,-0.389C0.058,-0.398 0.053,-0.407 0.048,-0.416C0.042,-0.425 0.037,-0.432 0.032,-0.437C0.062,-0.47 0.091,-0.507 0.119,-0.551C0.146,-0.594 0.172,-0.639 0.196,-0.688C0.219,-0.737 0.239,-0.786 0.256,-0.836ZM0.169,-0.576L0.237,-0.644L0.238,-0.643L0.238,0.083L0.169,0.083L0.169,-0.576Z" style="fill:white;fill-rule:nonzero;"/>
                </g>
                <g transform="matrix(72,0,0,72,619.481,88.1106)">
                    <path d="M0.039,-0.309C0.077,-0.322 0.123,-0.338 0.176,-0.357C0.229,-0.376 0.282,-0.397 0.336,-0.418L0.349,-0.35C0.299,-0.331 0.249,-0.311 0.198,-0.291C0.147,-0.271 0.101,-0.253 0.059,-0.238L0.039,-0.309ZM0.046,-0.638L0.339,-0.638L0.339,-0.568L0.046,-0.568L0.046,-0.638ZM0.166,-0.84L0.237,-0.84L0.237,-0.013C0.237,0.007 0.235,0.023 0.23,0.034C0.225,0.045 0.217,0.054 0.205,0.061C0.193,0.067 0.177,0.071 0.158,0.073C0.139,0.075 0.114,0.076 0.085,0.075C0.084,0.066 0.082,0.054 0.078,0.04C0.074,0.026 0.069,0.014 0.064,0.003C0.083,0.004 0.101,0.004 0.117,0.004C0.133,0.004 0.144,0.004 0.15,0.003C0.155,0.003 0.159,0.002 0.162,-0C0.165,-0.002 0.166,-0.006 0.166,-0.013L0.166,-0.84ZM0.553,-0.804L0.607,-0.754C0.58,-0.739 0.549,-0.726 0.515,-0.714C0.48,-0.701 0.447,-0.691 0.415,-0.682C0.414,-0.689 0.411,-0.698 0.406,-0.708C0.401,-0.717 0.396,-0.725 0.392,-0.732C0.421,-0.741 0.451,-0.753 0.481,-0.766C0.51,-0.779 0.534,-0.792 0.553,-0.804ZM0.392,-0.732L0.457,-0.711L0.457,-0.387L0.392,-0.387L0.392,-0.732ZM0.414,-0.449L0.847,-0.449L0.847,-0.696L0.723,-0.696L0.723,-0.758L0.915,-0.758L0.915,-0.387L0.414,-0.387L0.414,-0.449ZM0.421,-0.602L0.566,-0.602L0.566,-0.544L0.421,-0.544L0.421,-0.602ZM0.727,-0.602L0.88,-0.602L0.88,-0.545L0.727,-0.545L0.727,-0.602ZM0.614,-0.841L0.683,-0.841L0.683,-0.262L0.614,-0.262L0.614,-0.841ZM0.379,-0.29L0.86,-0.29L0.86,-0.226L0.379,-0.226L0.379,-0.29ZM0.839,-0.29L0.853,-0.29L0.866,-0.293L0.911,-0.271C0.888,-0.217 0.856,-0.17 0.817,-0.131C0.777,-0.091 0.732,-0.057 0.681,-0.029C0.63,-0.001 0.576,0.022 0.518,0.04C0.459,0.058 0.399,0.072 0.338,0.082C0.335,0.073 0.33,0.063 0.324,0.051C0.317,0.038 0.311,0.028 0.304,0.02C0.362,0.012 0.419,0 0.474,-0.015C0.529,-0.03 0.58,-0.05 0.628,-0.074C0.676,-0.098 0.718,-0.127 0.755,-0.161C0.791,-0.195 0.819,-0.234 0.839,-0.279L0.839,-0.29ZM0.477,-0.247C0.506,-0.201 0.544,-0.16 0.593,-0.125C0.642,-0.09 0.698,-0.06 0.761,-0.037C0.824,-0.013 0.891,0.005 0.962,0.016C0.957,0.021 0.951,0.027 0.946,0.035C0.94,0.042 0.935,0.05 0.93,0.058C0.925,0.065 0.921,0.072 0.917,0.078C0.844,0.063 0.776,0.043 0.712,0.016C0.648,-0.011 0.591,-0.044 0.541,-0.084C0.49,-0.124 0.449,-0.17 0.416,-0.223L0.477,-0.247Z" style="fill:white;fill-rule:nonzero;"/>
                </g>
                <g transform="matrix(72,0,0,72,691.481,88.1106)">
                    <rect x="0.044" y="-0.431" width="0.916" height="0.082" style="fill:white;fill-rule:nonzero;"/>
                </g>
                <g transform="matrix(72,0,0,72,763.481,88.1106)">
                    <path d="M0.039,-0.309C0.077,-0.322 0.123,-0.338 0.176,-0.357C0.229,-0.376 0.282,-0.397 0.336,-0.418L0.349,-0.35C0.299,-0.331 0.249,-0.311 0.198,-0.291C0.147,-0.271 0.101,-0.253 0.059,-0.238L0.039,-0.309ZM0.046,-0.638L0.339,-0.638L0.339,-0.568L0.046,-0.568L0.046,-0.638ZM0.166,-0.84L0.237,-0.84L0.237,-0.013C0.237,0.007 0.235,0.023 0.23,0.034C0.225,0.045 0.217,0.054 0.205,0.061C0.193,0.067 0.177,0.071 0.158,0.073C0.139,0.075 0.114,0.076 0.085,0.075C0.084,0.066 0.082,0.054 0.078,0.04C0.074,0.026 0.069,0.014 0.064,0.003C0.083,0.004 0.101,0.004 0.117,0.004C0.133,0.004 0.144,0.004 0.15,0.003C0.155,0.003 0.159,0.002 0.162,-0C0.165,-0.002 0.166,-0.006 0.166,-0.013L0.166,-0.84ZM0.553,-0.804L0.607,-0.754C0.58,-0.739 0.549,-0.726 0.515,-0.714C0.48,-0.701 0.447,-0.691 0.415,-0.682C0.414,-0.689 0.411,-0.698 0.406,-0.708C0.401,-0.717 0.396,-0.725 0.392,-0.732C0.421,-0.741 0.451,-0.753 0.481,-0.766C0.51,-0.779 0.534,-0.792 0.553,-0.804ZM0.392,-0.732L0.457,-0.711L0.457,-0.387L0.392,-0.387L0.392,-0.732ZM0.414,-0.449L0.847,-0.449L0.847,-0.696L0.723,-0.696L0.723,-0.758L0.915,-0.758L0.915,-0.387L0.414,-0.387L0.414,-0.449ZM0.421,-0.602L0.566,-0.602L0.566,-0.544L0.421,-0.544L0.421,-0.602ZM0.727,-0.602L0.88,-0.602L0.88,-0.545L0.727,-0.545L0.727,-0.602ZM0.614,-0.841L0.683,-0.841L0.683,-0.262L0.614,-0.262L0.614,-0.841ZM0.379,-0.29L0.86,-0.29L0.86,-0.226L0.379,-0.226L0.379,-0.29ZM0.839,-0.29L0.853,-0.29L0.866,-0.293L0.911,-0.271C0.888,-0.217 0.856,-0.17 0.817,-0.131C0.777,-0.091 0.732,-0.057 0.681,-0.029C0.63,-0.001 0.576,0.022 0.518,0.04C0.459,0.058 0.399,0.072 0.338,0.082C0.335,0.073 0.33,0.063 0.324,0.051C0.317,0.038 0.311,0.028 0.304,0.02C0.362,0.012 0.419,0 0.474,-0.015C0.529,-0.03 0.58,-0.05 0.628,-0.074C0.676,-0.098 0.718,-0.127 0.755,-0.161C0.791,-0.195 0.819,-0.234 0.839,-0.279L0.839,-0.29ZM0.477,-0.247C0.506,-0.201 0.544,-0.16 0.593,-0.125C0.642,-0.09 0.698,-0.06 0.761,-0.037C0.824,-0.013 0.891,0.005 0.962,0.016C0.957,0.021 0.951,0.027 0.946,0.035C0.94,0.042 0.935,0.05 0.93,0.058C0.925,0.065 0.921,0.072 0.917,0.078C0.844,0.063 0.776,0.043 0.712,0.016C0.648,-0.011 0.591,-0.044 0.541,-0.084C0.49,-0.124 0.449,-0.17 0.416,-0.223L0.477,-0.247Z" style="fill:white;fill-rule:nonzero;"/>
                </g>
            </g>
            <g id="wechat.svg" transform="matrix(3.89449,0,0,3.89449,437.611,101.376)">
                <g transform="matrix(1,0,0,1,-12,-12)">
                    <path d="M8.691,2.188C3.891,2.188 0,5.476 0,9.53C0,11.742 1.17,13.733 3.002,15.08C3.21,15.231 3.297,15.501 3.215,15.745L2.825,17.225C2.806,17.295 2.777,17.366 2.777,17.438C2.777,17.601 2.907,17.733 3.067,17.733C3.127,17.731 3.184,17.712 3.234,17.679L5.137,16.565C5.35,16.429 5.612,16.393 5.854,16.467C6.776,16.735 7.731,16.87 8.691,16.87C8.967,16.87 9.234,16.843 9.502,16.82C8.645,14.242 9.659,11.848 11.434,10.374C13.137,8.959 15.316,8.394 17.287,8.536C16.711,4.953 13.091,2.188 8.691,2.188ZM5.785,5.991C6.427,5.991 6.947,6.52 6.947,7.171C6.947,7.174 6.947,7.176 6.947,7.179C6.947,7.818 6.424,8.345 5.785,8.349C5.146,8.345 4.623,7.818 4.623,7.179C4.623,7.176 4.623,7.173 4.623,7.17C4.623,6.519 5.143,5.99 5.785,5.99L5.785,5.991ZM11.598,5.991C12.24,5.991 12.76,6.52 12.76,7.171C12.76,7.174 12.76,7.176 12.76,7.179C12.76,7.818 12.237,8.345 11.598,8.349C10.959,8.345 10.436,7.818 10.436,7.179C10.436,7.176 10.436,7.174 10.436,7.171C10.436,6.52 10.956,5.991 11.598,5.991ZM16.938,8.858C15.141,8.806 13.192,9.37 11.658,10.644C9.938,12.072 8.971,14.364 9.878,16.864C10.82,19.317 13.544,21.093 16.762,21.093C17.588,21.093 18.384,20.973 19.123,20.757C19.325,20.696 19.543,20.726 19.721,20.839L21.305,21.765C21.346,21.793 21.395,21.81 21.445,21.812C21.579,21.812 21.685,21.701 21.685,21.565C21.685,21.505 21.662,21.445 21.647,21.388L21.32,20.155C21.305,20.104 21.298,20.052 21.297,19.999C21.296,19.842 21.371,19.694 21.498,19.601C23.024,18.48 24,16.82 24,14.98C24,11.77 21.069,9.143 17.344,8.892L17.344,8.89C17.209,8.88 17.074,8.863 16.937,8.86L16.938,8.858ZM14.408,12.132C14.943,12.132 15.377,12.572 15.377,13.114C15.377,13.116 15.377,13.119 15.377,13.121C15.377,13.654 14.941,14.093 14.408,14.097C13.875,14.093 13.439,13.654 13.439,13.121C13.439,13.119 13.439,13.116 13.439,13.114C13.439,12.572 13.873,12.132 14.409,12.132L14.408,12.132ZM19.252,12.132C19.787,12.132 20.221,12.572 20.221,13.114C20.221,13.116 20.221,13.119 20.221,13.121C20.221,13.654 19.785,14.093 19.252,14.097C18.719,14.093 18.283,13.654 18.283,13.121C18.283,13.119 18.283,13.116 18.283,13.114C18.283,12.572 18.717,12.132 19.252,12.132Z" style="fill:white;fill-rule:nonzero;"/>
                </g>
            </g>
        </g>
    </g>
</svg>
